/* XPM */
static char *e7d4f1d85a5846258a28f4ab9a8c9c3fXCkqd2XUU4kxaBEW[] = {
/* columns rows colors chars-per-pixel */
"64 64 256 2 ",
"   c black",
".  c #0000A8",
"X  c #00A800",
"o  c #00A8A8",
"O  c #A80000",
"+  c #A800A8",
"@  c #A85400",
"#  c gray66",
"$  c gray33",
"%  c #5454FC",
"&  c #54FC54",
"*  c #54FCFC",
"=  c #FC5454",
"-  c #FC54FC",
";  c #FCFC54",
":  c gray99",
">  c #ECECEC",
",  c gainsboro",
"<  c #D0D0D0",
"1  c #C0C0C0",
"2  c #B4B4B4",
"3  c gray66",
"4  c #989898",
"5  c gray55",
"6  c #7C7C7C",
"7  c gray44",
"8  c #646464",
"9  c gray33",
"0  c #484848",
"q  c gray22",
"w  c #2C2C2C",
"e  c #202020",
"r  c #FC0000",
"t  c #EC0000",
"y  c #E00000",
"u  c #D40000",
"i  c #C80000",
"p  c #BC0000",
"a  c #B00000",
"s  c #A40000",
"d  c #980000",
"f  c #880000",
"g  c #7C0000",
"h  c #700000",
"j  c #640000",
"k  c #580000",
"l  c #4C0000",
"z  c #400000",
"x  c #FCD8D8",
"c  c #FCB8B8",
"v  c #FC9C9C",
"b  c #FC7C7C",
"n  c #FC5C5C",
"m  c #FC4040",
"M  c #FC2020",
"N  c #FC0000",
"B  c #FCA85C",
"V  c #FC9840",
"C  c #FC8820",
"Z  c #FC7800",
"A  c #E46C00",
"S  c #CC6000",
"D  c #B45400",
"F  c #9C4C00",
"G  c #FCFCD8",
"H  c #FCFCB8",
"J  c #FCFC9C",
"K  c #FCFC7C",
"L  c #FCF85C",
"P  c #FCF440",
"I  c #FCF420",
"U  c #FCF400",
"Y  c #E4D800",
"T  c #CCC400",
"R  c #B4AC00",
"E  c #9C9C00",
"W  c #848400",
"Q  c #706C00",
"!  c #585400",
"~  c #404000",
"^  c #D0FC5C",
"/  c #C4FC40",
"(  c #B4FC20",
")  c #A0FC00",
"_  c #90E400",
"`  c #80CC00",
"'  c #74B400",
"]  c #609C00",
"[  c #D8FCD8",
"{  c #BCFCB8",
"}  c #9CFC9C",
"|  c #80FC7C",
" . c #60FC5C",
".. c #40FC40",
"X. c #20FC20",
"o. c #00FC00",
"O. c #00FC00",
"+. c #00EC00",
"@. c #00E000",
"#. c #00D400",
"$. c #04C800",
"%. c #04BC00",
"&. c #04B000",
"*. c #04A400",
"=. c #049800",
"-. c #048800",
";. c #047C00",
":. c #047000",
">. c #046400",
",. c #045800",
"<. c #044C00",
"1. c #044000",
"2. c #D8FCFC",
"3. c #B8FCFC",
"4. c #9CFCFC",
"5. c #7CFCF8",
"6. c #5CFCFC",
"7. c #40FCFC",
"8. c #20FCFC",
"9. c #00FCFC",
"0. c #00E4E4",
"q. c #00CCCC",
"w. c #00B4B4",
"e. c #009C9C",
"r. c #008484",
"t. c #007070",
"y. c #005858",
"u. c #004040",
"i. c #5CBCFC",
"p. c #40B0FC",
"a. c #20A8FC",
"s. c #009CFC",
"d. c #008CE4",
"f. c #007CCC",
"g. c #006CB4",
"h. c #005C9C",
"j. c #D8D8FC",
"k. c #B8BCFC",
"l. c #9C9CFC",
"z. c #7C80FC",
"x. c #5C60FC",
"c. c #4040FC",
"v. c #2024FC",
"b. c #0004FC",
"n. c #0000FC",
"m. c #0000EC",
"M. c #0000E0",
"N. c #0000D4",
"B. c #0000C8",
"V. c #0000BC",
"C. c #0000B0",
"Z. c #0000A4",
"A. c #000098",
"S. c #000088",
"D. c #00007C",
"F. c #000070",
"G. c #000064",
"H. c #000058",
"J. c #00004C",
"K. c #000040",
"L. c #282828",
"P. c #FCE034",
"I. c #FCD424",
"U. c #FCCC18",
"Y. c #FCC008",
"T. c #FCB400",
"R. c #B420FC",
"E. c #A800FC",
"W. c #9800E4",
"Q. c #8000CC",
"!. c #7400B4",
"~. c #60009C",
"^. c #500084",
"/. c #440070",
"(. c #340058",
"). c #280040",
"_. c #FCD8FC",
"`. c #FCB8FC",
"'. c #FC9CFC",
"]. c #FC7CFC",
"[. c #FC5CFC",
"{. c #FC40FC",
"}. c #FC20FC",
"|. c #FC00FC",
" X c #E000E4",
".X c #C800CC",
"XX c #B400B4",
"oX c #9C009C",
"OX c #840084",
"+X c #6C0070",
"@X c #580058",
"#X c #400040",
"$X c #FCE8DC",
"%X c #FCE0D0",
"&X c #FCD8C4",
"*X c #FCD4BC",
"=X c #FCCCB0",
"-X c #FCC4A4",
";X c #FCBC9C",
":X c #FCB890",
">X c #FCB080",
",X c #FCA470",
"<X c #FC9C60",
"1X c #F0945C",
"2X c #E88C58",
"3X c #DC8854",
"4X c #D08050",
"5X c #C87C4C",
"6X c #BC7848",
"7X c #B47044",
"8X c #A86840",
"9X c #A0643C",
"0X c #9C6038",
"qX c #905C34",
"wX c #885830",
"eX c #80502C",
"rX c #744C28",
"tX c #6C4824",
"yX c #5C4020",
"uX c #543C1C",
"iX c #483818",
"pX c #403018",
"aX c #382C14",
"sX c #28200C",
"dX c #600064",
"fX c #006464",
"gX c #006060",
"hX c #00001C",
"jX c #00002C",
"kX c #302410",
"lX c #480048",
"zX c #500050",
"xX c #000034",
"cX c gray11",
"vX c #4C4C4C",
"bX c gray36",
"nX c gray25",
"mX c gray19",
"MX c #343434",
"NX c #D8F4F4",
"BX c #B8E8E8",
"VX c #9CDCDC",
"CX c #74C8C8",
"ZX c #48C0C0",
"AX c #20B4B4",
"SX c #20B0B0",
"DX c #00A4A4",
"FX c #009898",
"GX c #008C8C",
"HX c #008484",
"JX c #007C7C",
"KX c #007878",
"LX c #007474",
"PX c #007070",
"IX c #006C6C",
"UX c #980088",
/* pixels */
"nXnXnXnXnX0 0 vXvX0 0 L.  q q 0 vXvXnXvX0 vXvXvXvXvX0 vXvXvXq L.  nXq vX0 vXvXvXvX0 vX0 0 nXnXL.  nX0 nXvX0 mX  L.q q 0 nXvX0 q ",
"q q nXnXnX0 vXnX0 0 q e   e q 0 nXq q nXnX0 vX0 0 0 vXvXvXq mXcX  q nXvXvX0 vXvX0 q q q q 0 q e   q q nXvXnXmX  cXq mXq nXvXnXq ",
"nXq q nXnXq q q q 0 q q   mXnXvXvXnX0 nXq nXnXvXvXvXvXvX0 q mXcX  q nXvXvXvXnX0 q q nXvXvXvXq mX  q nXvX0 q mX  q 0 q q 0 nXmXmX",
"nXq q q nX0 q q mXq q mX  mXq 0 0 q 0 0 nX0 nX0 0 0 nXq mXmXq mX  q 0 0 nXnXnXnXq 0 nXnXq 0 q q   q nXvXnX0 mX  mXnXnX0 vXq q mX",
"q q q nXq q L.q q q q L.  q q nXnX0 0 0 0 0 nXq q q L.mXq q 0 q   nX0 vXvXnXq q nX0 vX0 0 0 L.mX  mXq nXnXnXq   L.q q nXnXq q L.",
"q L.mXL.mXL.mXnXq q L.L.  q q vX0 0 0 vX0 vXnXq nXq nX0 vXvX0 mX  q nX0 q q 0 0 0 0 0 nXq q mXmX  q nXnX0 q mX  L.mXq q q L.cXL.",
"mXmXL.mXmXq q nXq q cXcX  L.q q nX0 nXnXq 0 nX0 0 0 0 0 0 nXnXL.  q q q q nXnXq mXq q q q mXL.L.  cXnXmXq mXL.  cXcXmXmXL.L.mXmX",
"q q L.q q 0 nX0 q q cXe   mX0 vXvXnXq 0 0 0 0 0 0 nXnX0 nXq q e   L.e mXmXmXL.L.L.mXq L.L.mXq L.  cXL.mXmXL.cX  cXL.L.L.q mXq mX",
"nXq q q nXnXq nXmXq cXcX  q nXq q q 0 nX0 0 q nX0 nXnX0 q 0 q L.                                                L.mXL.mXq q q mX",
"q q q q q q q nXmXq e cX  e q nX0 q vXnXnXnXnX0 0 nX0 0 nXnXq L.  q mXq q q q mXmXe   q q q cXcXq q q q q L.cX  cXmXmXq q q q mX",
"0 q q q 0 q q q q q e e   cXmXq q q nXq nX0 nX0 0 nXnXnXq q mXe   L.q 0 nXq q q nXmX  mXq nXq mXq 0 nXnXnXmXcX  L.q q q q q q q ",
"q q q q q mXq q mXmXL.mX  L.mXmXq nXq q q q nXnXnXnXnXnXq q mXcX  q vXvXq q q q q L.  q q nXnXq nXnXq q 0 q mX  L.q q 0 q q q mX",
"mXq q q mXmXmXq mXL.L.cX  e mXL.q q q q q q q q q mXq mXmXmXmXL.  q nXmXmXq q q q L.  mXmXq q q q q nXnXnXq L.  L.q q nXmXq mXe ",
"L.e L.e L.L.e mXL.cXcXcX  L.mXmXmXmXmXq q mXmXL.L.L.e e L.L.e cX  q q q q q q mXL.L.  cXe q mXmXq nXq nXq q L.  L.mXq L.cXcXcXe ",
"L.L.cXL.L.cXL.L.e cXcXcX  cXL.q mXe e cXcXe L.mXq mXL.L.L.e cXcX  mXmXmXe L.L.e L.L.  mXcXL.mXL.mXL.mXq q q mX  L.e e cXcXe e q ",
"                                                                                      L.L.mXL.e L.mXmXq L.mXq                   ",
"q q q q q q q mXq q q q mXe L.  mXq q nXq q q mXq mX  e L.mXmXmXcXL.mXL.L.mXL.L.cXcX  L.q q mXmXmXmXL.q mXmXq   mXq mXq L.L.L.mX",
"q q q q q q q q q mXmXq q q L.  q mXq q q nXq q nXL.  e mXq q q q q q mXmXq q q L.cX  L.q q L.mXe L.L.q q q mX  mXq q q L.q q mX",
"nXq q q nXq q q q q nXq q L.cX  mXL.q nXq q q 0 nXe   L.q q nXq q q nXq q nXq q L.cX  L.q q q q mXq cXL.q L.L.  L.q q q mXq mXq ",
"q mXq mXq q q q q q q L.e e cX  L.q q q mXnXq q L.cX  e q mXq q nXq q nXq q L.mXmXL.  e mXmXq q mXmXL.mXmXmXq   mXq q q q q q q ",
"q q q q q q q q q mXmXe L.L.L.  q nXq q nXq q mXmXcX  L.q q q q q q q q q mXmXq L.L.  mXL.mXmXL.mXmXq mXe L.L.  L.q q q q mXq q ",
"mXmXL.mXmXmXmXmXcXe cXcXL.L.e   L.L.mXq mXe e e cXe   L.q q mXq q nXnXq mXL.q q e e   L.cXL.e e L.L.L.L.L.e mX  L.mXL.mXmXe q mX",
"L.mXmXq L.mXe L.e mXL.L.mXL.cX  cXe cXcXcXcXcXL.L.L.  L.q q q mXq nXq L.mXq q q L.L.  mXmXmXmXL.L.q q q mXcXL.  L.e e e L.e L.e ",
"                                                      L.q mXq mXq mXL.mXq q q q L.e   mXmXq q mXmXq q mXmXcXe                   ",
"  cXL.cXL.L.L.L.L.cX  e L.L.q mXL.mXL.L.e e e e L.cX  cXL.mXmXL.mXmXmXq q q q mXL.cX  L.L.e mXe L.mXq q mXcXe   e L.mXq q q mXe ",
"  L.q mXq q mXmXmXcX  L.mXq q q q mXmXq mXq q mXe cX  cXe e mXmXq q mXq q q mXmXL.cX  mXq L.q q q mXq q q cXcX  cXL.q q q mXmXcX",
"  mXL.mXmXq q mXmXe   cXmXq q q q q q q q q mXmXL.cX  e mXL.mXmXq q q q mXL.L.cXe L.  L.L.e q q mXL.L.mXmXcXcX  cXmXq q L.mXmXcX",
"  mXq q mXq q mXL.cX  L.q q q mXmXL.L.L.L.L.cXmXmXcX  L.L.cXcXL.L.mXL.L.L.L.L.L.L.L.  cXe mXq q q q mXq L.cXcX  cXmXq mXq q mXcX",
"  mXq q mXmXL.L.L.cX  cXL.L.L.L.L.L.L.e L.mXL.q q L.  cXcXcXcXL.L.L.L.e e cXcXe L.cX  cXL.q q q mXq q L.e L.cX  cXL.q q q L.L.cX",
"  e q L.mXq q L.mXcX  e L.cXL.cXe L.mXL.q q L.mXmXL.                                  L.mXq mXq q q mXL.L.L.cX  cXmXq mXq mXL.cX",
"  e q L.q mXe L.L.cX  e e L.mXmXq q q mXq q mXmXmXL.  e e L.cXe e cXcXcXcXcXe L.L.cX  L.L.L.L.mXe L.e e L.L.L.  cXe L.L.e e cXe ",
"  mXq q mXmXmXmXcXcX  L.L.L.L.mXq mXmXmXq q mXmXL.cX  e mXmXe L.e e cXe cXL.mXmXL.cX  cXcXcXcXcXcXcXcXe e e cX  cXcXe cXcXcXcXcX",
"  L.mXmXmXL.L.e cXe   L.L.L.L.cXL.L.L.L.L.L.L.L.cXcX  cXe L.mXmXL.L.L.q mXq mXq L.cX                                            ",
"  cXe e cXcXcXcXcXcX  cXcXe cXcXcXcXcXcXcXcXe cXcXcX  cXcXe L.e L.L.L.L.L.L.e L.e cX  cXe L.L.L.L.cXcXcXcXe e L.L.L.  cXcXe L.L.",
"  cXcXcXcXcXcXcXcXcX  cXcXcXcXcXcXcXcXcXcXcXcXcXcXcX  L.cXcXL.mXL.L.e mXL.L.L.L.L.cX  e e mXL.mXL.mXL.L.mXmXmXmXL.e   L.L.mXmXL.",
"                                                      cXcXcXcXL.L.mXL.L.e L.L.L.e cX  L.mXq L.q mXmXmXq q mXmXmXmXcX  L.L.mXmXL.",
"  e cXe cXL.L.L.L.L.L.cXL.L.L.L.L.L.L.cXe   e cXL.cX  cXcXe cXe L.L.mXL.mXmXL.L.e cX  e L.L.mXq mXmXq q q q mXq L.cX  L.L.mXmXL.",
"  L.L.L.e L.mXL.mXq mXL.q mXmXL.L.L.L.e cX  q L.mXcX  e L.L.L.L.e mXq L.q mXL.L.e cX  e L.mXL.L.mXmXmXq mXL.L.mXe cX  L.L.L.mXL.",
"  cXcXe L.cXcXe L.L.e L.mXL.e L.L.L.L.cXcX  mXL.e cX  L.L.L.L.L.cXcXe L.e L.L.L.cXcX  cXL.mXmXL.mXmXmXmXmXL.L.L.L.cX  cXL.q mXL.",
"  cXcXL.L.e cXcXcXL.L.L.L.e L.mXL.mXL.cXcX  mXmXe cX  cXcXcXcXe cXcXe cXcXcXcXcXcXcX  cXcXL.L.L.L.L.L.L.e e L.mXL.cX  L.L.L.e L.",
"  e L.mXmXL.e cXcXmXL.mXmXmXmXe cXL.e cXcX  L.cXcXcX  cXcXcXe e cXcXcXcXcXcXcXcXcXcX  cXcXL.L.e L.L.cXe e mXmXmXcXcX  cXcXmXmXL.",
"  e L.L.L.L.L.cXcXcXcXL.L.L.cXcXcXcXL.cXcX                                            cXcXL.mXe mXe L.L.e L.e cXcXcX  L.mXq e L.",
"  cXcXe cXcXe e e e e e e cXcXcXcXcXcXcXcX  L.e L.L.L.mXL.L.  L.L.L.L.L.L.e cXe L.e   cXe L.L.e L.e L.L.cXe cXcXcXcX  cXL.L.mXL.",
"  cXcXcXcXcXcXcXL.L.e cXe cXcXcXe cXcXcXcX  L.mXmXq mXq mXL.  mXmXmXmXL.mXL.mXe L.e   e L.L.L.mXmXL.L.L.e cXcXcXcXe   L.e e L.L.",
"  e e L.L.e cXcXe cXe cXcXcXe e cXcXcXcXcX  L.mXL.mXL.mXL.e   L.L.L.L.e L.cXe cXL.cX  L.L.L.e L.e e e cXe L.e cXcXcX  cXe mXmXL.",
"  cXe cXcXcXcXcXcXcXcXcXcXcXcXcXcXcXcXcXcX  cXL.cXcXL.mXL.cX  L.L.L.L.L.L.L.e e cXcX  cXcXcXcXcXcXcXcXcXe e cXcXcXcX  cXL.e L.cX",
"  cXcXcXcXcXcXcXcXcXcXcXcXcXcXcXcXcXcXcX    cXcXcXcXL.L.L.cX  cXcXcXcXcXcXcXcXcXcXcX  cX  cX  cXcXcXcXcXcXcXcXcXcX    cXcXcXcXcX",
"                                            e cXe L.L.e L.cX                                                                    ",
"cXcXcXcXcXcXcX  e mXL.L.L.L.L.L.L.L.L.cXcX  cXe L.L.L.e L.cX  cXL.e e L.cX  cXcXL.cXe e cXcXcX  cXcXcXcXcXcXe cXcXcXcXcXcXL.e e ",
"L.mXL.mXL.L.cX  L.mXL.mXL.L.e L.mXL.L.e cX  e L.L.L.L.cXcXcX  e mXmXmXL.cX  cXmXmXmXL.e L.cXcX  cXcXe e cXcXL.e L.L.mXL.L.L.e L.",
"L.mXL.mXL.L.cX  e L.e cXcXe cXcXcXcXcXcXcX  L.e e cXe e e cX  L.mXL.L.L.cX  e L.L.e L.L.e cXcX  cXe L.L.L.e cXcXe L.e cXL.L.mXL.",
"L.L.mXL.L.L.cX  e e cXcXe cXcXcXe cXcXcXcX  cXcXe e L.L.cXcX  e L.mXmXmXcX  e e mXL.L.e cXcXcX  cXcXcXL.L.L.cXcXcXcXe e L.L.L.L.",
"mXL.L.L.mXL.cX  L.cXcXcXcXcXcXcXcXcXcXcXcX  cXe L.L.L.cXcXcX  e L.L.mXL.cX  cXe mXL.e e cXcXcX  cXL.L.L.L.L.L.L.L.L.L.L.L.L.mXL.",
"e cXL.cXe L.cX  cXcXcXcXcXcXcXcXcXcXe cXcX  cXL.L.L.e cXcXcX  cXL.L.L.e cX  e L.L.e cXcXcXcXcX  cXe L.e e L.L.L.L.L.L.mXL.L.mXL.",
"mXmXL.mXmXe cX                              cXe cXL.L.cXcXcX  L.L.L.mXe cX  cXL.L.L.cXcXcXcXcX  cXcXL.cXcXL.L.e L.L.L.L.L.L.L.L.",
"e L.mXL.e cXcX  cXcXcXcXcXe cXcXcXcXcXcXcX  L.e cXL.cXcXcXcX  e L.L.mXe cX  cXe cXcXcXcXcXcXcX  cXcXe e cXcXcXcXcXcXcXL.cXcXcXe ",
"cXcXe cXcXcXcX  cXe L.L.L.L.e L.e L.cXcXcX  e cXe cXcXcXcXcX  e L.L.L.e cX  cXcXcXcXcXL.e cXcX  cXcXcXcXcXcXe e L.L.L.e e cXcXcX",
"cXcXcXcXcXcXcX  cXe e e e L.L.e L.cXcXcXcX  cXcXcXcXcXL.e cX  cXcXL.mXL.cX  cXcXe e e L.e cXcX  cXcXcXcXcXL.mXmXe e L.L.L.L.L.L.",
"e L.L.L.e cXcX  cXcXcXcXcXe cXcXL.cXcXcXcX  cXcXe L.L.L.cXcX  cXL.L.L.e cX  cXe e L.L.L.e cXcX  cXe e L.L.L.L.L.L.L.mXL.L.L.L.L.",
"e L.cXL.e cXcX  cXcXcXcXcXcXe cXe cXcXcXcX  cXcXmXL.mXL.e cX  cXL.L.L.e cX  e mXmXL.L.L.L.cXcX  cXL.mXL.e L.L.L.e e L.L.cXL.L.L.",
"L.mXe mXL.cXcX  cXcXcXcXcXcXcXcXcXcXcXcXcX  cXL.L.e L.L.e cX  cXe L.e cXcX  cXL.L.L.mXL.cXcXcX  L.L.L.e e L.L.e cXe e e cXe e e ",
"L.L.e L.L.cXcX  cXcXcXcXcXcXcXcXcXcXcXcXcX  e cXcXe cXcXcXcX  cXe mXe cXcX  e e cXcXcXcXcXcXcX  cXcXL.e cXcXcXcXcXcXe cXcXcXcXcX",
"cXcXL.cXcXcXcX  cXcXcXcXcXcXcXcXcXcXcXcXcX  cXcXcXcXcXcXcXcX  cXe e cXcXcX  cXcXcXcXcXcXcXcXcX  cXcXcXcXcXcXcXcXcXcXcXcXcXcXcXcX",
"cXcXcXcXcXcXcX  cXcXcXcXcXcXcXcXcXcXcXcXcX                    cXcXcXcXcXcX                      cXcXcXcXcXcXcXcXcXcXcXcXcXcXcXcX"
};
