/* XPM */
static char *_cfefa8acb0243f6fa4580f1987d87e24Xi2zAfTbP15FCKl[] = {
/* columns rows colors chars-per-pixel */
"64 64 151 2 ",
"   c #160F06",
".  c #171007",
"X  c #1C1307",
"o  c #1C1309",
"O  c #22170A",
"+  c #25190C",
"@  c #2A1D0C",
"#  c #261B10",
"$  c #2A1E11",
"%  c #2F210F",
"&  c #33220E",
"*  c #3A260E",
"=  c #3E280E",
"-  c #2D2011",
";  c #342412",
":  c #3A2711",
">  c #372817",
",  c #3C2A14",
"<  c #3B2B19",
"1  c #452C0F",
"2  c #4A2E0F",
"3  c #4D310F",
"4  c #52330E",
"5  c #432D13",
"6  c #492F10",
"7  c #422E18",
"8  c #453017",
"9  c #4C3214",
"0  c #45311A",
"q  c #4B351B",
"w  c #4F381E",
"e  c #533513",
"r  c #583610",
"t  c #563916",
"y  c #5B3B14",
"u  c #503719",
"i  c #543A1C",
"p  c #5B3D1B",
"a  c #623E14",
"s  c #603F19",
"d  c #4B3720",
"f  c #4E3921",
"g  c #543C21",
"h  c #593F21",
"j  c #5E411E",
"k  c #664014",
"l  c #6C4416",
"z  c #64431C",
"x  c #6A461C",
"c  c #6D481D",
"v  c #704717",
"b  c #794C17",
"n  c #734B1D",
"m  c #7A4E1C",
"M  c #7C511E",
"N  c #5C4223",
"B  c #644522",
"V  c #694720",
"C  c #664825",
"Z  c #6C4A23",
"A  c #624728",
"S  c #654929",
"D  c #6B4D2A",
"F  c #734E23",
"G  c #784F21",
"H  c #714F28",
"J  c #6F512D",
"K  c #765125",
"L  c #7B5324",
"P  c #74522B",
"I  c #7B562A",
"U  c #7E592D",
"Y  c #745430",
"T  c #7C5931",
"R  c #82541D",
"E  c #88571D",
"W  c #8F5B1C",
"Q  c #905C1E",
"!  c #825623",
"~  c #855925",
"^  c #8B5B23",
"/  c #805729",
"(  c #835B2B",
")  c #8A5E2B",
"_  c #915E24",
"`  c #835E32",
"'  c #895F30",
"]  c #87602F",
"[  c #8D612D",
"{  c #936126",
"}  c #93642D",
"|  c #9A672C",
" . c #9B692E",
".. c #866135",
"X. c #866137",
"o. c #876337",
"O. c #886132",
"+. c #896033",
"@. c #8E6432",
"#. c #8A6334",
"$. c #896236",
"%. c #8C6334",
"&. c #8B6436",
"*. c #8F6637",
"=. c #856138",
"-. c #88633A",
";. c #8B653A",
":. c #8E6739",
">. c #8C643A",
",. c #8C673A",
"<. c #916532",
"1. c #906632",
"2. c #926632",
"3. c #906737",
"4. c #946835",
"5. c #956935",
"6. c #966A35",
"7. c #956B37",
"8. c #9A6A33",
"9. c #9C6B31",
"0. c #906738",
"q. c #916839",
"w. c #936A3B",
"e. c #966C39",
"r. c #90693D",
"t. c #916A3D",
"y. c #926A3C",
"u. c #946C3D",
"i. c #956D3E",
"p. c #9A6D3A",
"a. c #9A6E3B",
"s. c #986F3F",
"d. c #9D713D",
"f. c #9F733E",
"g. c #A36D2E",
"h. c #A16E31",
"j. c #A16E33",
"k. c #A47135",
"l. c #AB7433",
"z. c #A3743C",
"x. c #A87438",
"c. c #AC7839",
"v. c #B17733",
"b. c #976E40",
"n. c #9C7241",
"m. c #9E7443",
"M. c #A37641",
"N. c #A77943",
"B. c #A97A43",
"V. c #B48146",
"C. c #BE894C",
/* pixels */
"g J ` -.T D D D I T I P D B B i ; + % 5 a ! ^ ~ ! R m R r 4 4 y r a a v a a a b ^ ^ z 5 8 j x j w 8 i Z I P S X.f.z.=.T J > - > ",
"Y r.b.b.o.` T o.$.` H P C B 8 ; & , 9 z L ^ ^ _ E M R y 2 2 4 r a v b E R R b E ^ M 8 & * e z F H Z I %.@.K J ] %.X.D w > # # d ",
"r.m.b.,.:.$.$.a.a.) U O.) K i 5 7 p c F n x n n l l 2 & & 1 4 r a b W W R x v v x 1 O o % p I } 2.[ @.@.I P J #.:.T N f > > 8 J ",
"i.b.;.;.X.` q.a.4.` ` 4.3.D u 9 z G L 9 , 9 y t 1 & @ & 1 4 a y a b R v y e y r 5 * X O 1 x } j. .) I K U U O.7.e.P N N N N D -.",
"r.;.=.o.` ` ` 3.&.U D ( H 8 q z L ^ z & & 5 t k e 1 1 6 r y y x a k r 9 2 1 2 9 9 9 = 5 y L  . .) L P ( @.2.7.7.T N N J J Y T b.",
":.T ` ;.` T $.3.&.D p q u i V /  .} x , & 6 x n z e e y t r r e 6 1 e 6 2 2 r a l x y y x ! [ ) I Z I @.9.4.X.I N q J U Y T T b.",
"r.$.$.&.T ` &.a.4.B - 7 p P [ k.l.} p & : t G ! k e y r 1 1 5 6 6 r a a x a c R ~ M y j K F ) ) K Z I [ 4.P i w w f J X.T J T -.",
"B.d.3.$.` Y z.z.X.q 8 p D [ k.l.j.H 9 & & y M m z a z y e 6 6 a c m m R R ^ ^ { ^ x z m ^ L ~ / c x I I P 0 0 i j N I X.Y P =.b.",
"z.d.&.%.I %.d.( B g N Z Z P ] ~ x t ; + & p M ! n c l z a a x L ^ _ _ ^ _ _ _ ! n c L { | K F z j j B B w ; 8 w N J T J D U :.N.",
"T ` I J X.( ` N q N B i 8 q z z 5 9 ; + = z ^ _ E n z x c m M ^ _ ^ ^ _ ^ ^ m a x n { g.) 9 y V K z j N i 8 p C Z P I I P T 7.f.",
"j w q N w 0 8 7 8 p 0 5 0 x P F Z p & & p ! g.{ F 6 : e n L m / R L ! ! ! n a p x L } { 9 & 9 V L F N z B C I I U U ( I J U X.U ",
"N ; , 0 w , , ; 8 p N C K ( [ ~ P p 5 p L g.l.! 9 @ * r n L m Z n G n G n z p z M ^ { K , , q V P j z P ( ( ] U U U I P U U U P ",
"B 8 8 g N 5 q 8 z H / @.k.x.[ Z p q u F | v._ p @ O * s L L H c F F G G c s x F ! ] ! Z 9 8 9 z Z Z K ( [ K K D j j Z Z U ] ] I ",
"C p B P / H p N P } a.k.c.4.p 5 5 9 x ) g.j.B , X O 9 F ^ L Z c F F Z n V x p z x m F Z j u j F L L / ] Z p j p i j Z I ] ] ] ( ",
"P P / 2.8.Z j Z ) 9.2.k.} P > ; > p G } 9.z : X X ; z ~ ) m Z H F L G F F p : & ; 9 z x z i j K L I ] L i 8 i j z H I ] ) ( K I ",
"K ~ [ } K 9 u Z ) 8.} 5.[ z ; + 7 x ) 8./ t O O @ p ~ } ~ Z z H G ) / F p : O O 5 j P x t : 8 j B K I x 9 u j K ( ] } ] K L Z P ",
"L / / p , & u Z [ } } [ / 8 + + q / k.| z > O & t / 9. .K D D m ) ) L B , O   @ 9 H U x q , q p p Z I j t N K ) }  .} / L F Z K ",
"L L F 9 ; : p L ) ~ L L p @ o @ B } k.I 5 O + 8 K } j.2.H L I / ) I i , @ o O , F ) H B B z B B Z L K q j Z I ~ [ | } / Z V F Z ",
"x K K p @ 9 z F L F Z z , X O , H  ./ , O X % p I 2.] ( ) ) ( ( C & + o O + 5 z / ) H x H L L Z K ! L z z x M K ~ ^ ~ F x V Z K ",
"K ~ ! z 5 p z p t 9 8 , @ + : t I [ B & > < p Z ( K U ( } ) C > o X o + < p Z U ) ( U K / [ L B I ) ) Z z z x K L F z V z z n c ",
"m ! ^ z * 6 9 5 9 , , & ; , t x H L B p B P ( ( P P I ( P i > $ . o $ 7 Z ( O.( ( ) ' F U F H K ) ] ) F x z c n c x z z z F c n ",
"F K c 9 % & * 9 9 e 9 t p z p p z Z P I 2.k.4.( i B H ( Z w , < > , q Z ` 4.%.H I $.0.I Z V K L ~ ~ ! F z z z z x z z x F n n F ",
"x n x 9 O & 5 t z n n F K c q 9 j K ) } z.x.` B 7 N P ( I D B B N N N U ' %.I B H ( 2.C i B F V Z K K F z i t z x z l n n n n n ",
"x z k 9 & = 9 c ~ { { ^ H z 7 p Z L ] [ 2.8.I > ; i P ` O.&.:.P B 7 g B ` %.` h h P ( i 7 q B p p z c n p 2 9 t k x c n x z s s ",
"y x x y 1 1 t M { | { c z t j x L ) I [ 2.%.p - 7 B ` &.e.N.d.I i 0 N T d.a.C 0 8 C B > : q V V i p x x p 9 9 y z n c v k t e t ",
"y x x r * = k ! { { z t 9 t B L I I / [ 2.( > ; w J &.7.d.N.0.N < f T M.V.T 0 $ < i g i p Z / U t z z n z 9 e y c n c y y t 9 9 ",
"e a e & * 9 x ^ { ^ x j u p Z L L K ) 5.$.N ; > f T &.a.M.b.J < < S d.C.i.q - ; 8 B P H I O.9.) B V K K y t p z l c y e e 3 = = ",
"9 e = 1 e k M E ~ ~ c y e 9 c L U ( ) 2.K q ; < g T a.M.b.;.J < 0 Y N.N.N < ; < N ( O.2.4.k.9.L V F L L x p y p k 9 1 1 4 4 * @ ",
"4 4 4 y l v c k k z e 5 5 u F / L K U D B 5 $ ; i T z.M.;.X.g 8 g T b.Y f 7 0 A ` d.x.z.a.2.] L H K n c z z x y 6 6 * 4 y y 1 1 ",
"4 a a l v k 3 * * 9 6 = 5 p / [ U i , , > ; ; ; N ` n.n.r.X.S d g S D S h g N T w.z.w.4.[ / L I L B u 9 e p y 9 1 1 2 y k y 2 4 ",
"y a a a 4 = * * 9 p p 9 t Z / L 9 o o + 5 q < i J q.M.n.&.` N d < d N D A h S P I ` 2.O.U I ( ( ! j & ; 5 p y t t y a l l a 4 a ",
"y a r r r 3 3 t l M L z p F L q : + + > N C C P q.B.N.:.-.N > - < f D T D S S S P U ' ` U U I I Z , @ & 9 z n m n n b R b a 4 a ",
"4 y k k k a l n ^ [ L t u j z u 9 8 w Z I I D O.m.V.-.Y S - # - d Y T b.Y J S D I I P D Z B B u @ X @ = z R ^ ^ ^ ~ E E a r 4 y ",
"a l b E R M M R E m 3 & & i z K P P I 5.%.D K X.-.=.S d > # - d Y b.b.b.T T T =.O.` P P C B 8 ; ; , 9 z K ^ ^ ^ R M R r 3 2 4 r ",
"k b W W R l c n x 8 O X & p ~ 5.} } ] [ I P J #.,.T N d > > d J b.b.b.b.%.$.,.b.d.$.( X.` P t 5 5 p c F c c n n c k 1 & & 1 4 a ",
"l b R l y 4 y y 1 * X + 5 c { g.9.( I I I U O.e.7.J N N N N D -.b.b.b.T -.=.,.b.4.U ` 4.2.Z w q z F L 9 5 9 p r 1 & & & 1 4 y a ",
"k k r 3 1 1 1 9 3 9 = 5 j L }  .( K P ( 2.5.7.7.U N N Y Y Y T i.r.b.` $.` $.` :.O.U Z ( H 0 q B ( ^ z * ; 5 y s e 1 1 9 r a a a ",
"4 2 3 3 3 3 r y x x t y x ! [ [ U c L ] 5.7.] P N w D T T T T b.,.T ` $.` T o.&.2.J i i i i x ! | } x * & 2 x n z e 9 y r r r r ",
"9 r k a k z n R E M j j n K ~ ) L Z I } 7.P j w w N J X.T P T %.i.-.$.,.` O.@.a.&.B - < p Z ] k.j.| z & * t K ! k e y r 1 1 2 2 ",
"l M M M M ^ W { ! l j M ~ ~ I / c C L I P 8 < i w N U T I P X.d.M.a.3.,.T I a.z.X.q 8 p P [ k.l.g.D 9 @ & y M M z a z r e 9 9 y ",
"^ { _ ^ _ _ _ E n c L {  .L K z j j C C i & 8 w A D U J D I 0.B.B.a.0.%.P ;.d.( C p N Z Z K ] ) x u ; @ & p M L n n n z k k z M ",
"{ ^ _ ^ ^ ^ n a z m { j.^ 9 p z K B j j w 8 p C Z P I P P T q.z.%.' U P ) ` ] N q N B i 5 q B z 5 9 & + * x ^ _ R n k z c n L ^ ",
"M L ! ! ! n p y x L { } e & 8 Z I c j j B C I I U ( ` I P I &.T N i q g w 0 8 8 8 p 0 8 8 z H F Z p ; & p ! g.{ n 8 = e c L M ~ ",
"n F n m n z p x m ^ } K > , 9 x K j z P ( ( O.U U I I I ( U T P N ; , 0 i > > & 8 j N B K ) } ~ K p 5 y L g.l.! 9 @ & t n L m n ",
"F n K F c z x F ! [ ! x 9 5 i z Z Z K ] [ K I C p j C Z / ] O.I B 7 w i B 5 0 q N H ( 2.j.x.[ D p q t F | v.) s @ O * z L L n c ",
"n K n n x x j z x F c F z 9 p F I I ~ ] Z j j i i p Z I ] ] ] U B p B K / D p j K [ 8.z.x.8.i 5 5 q V ) l.g.z * X + 9 F ~ L n Z ",
"F L L n c p , & * e j x j i z P I L ( L w 8 i j B H L ( ( ) K I D P / 2.8.x j D ) 8.2.j.2.H , & > t L }  .z > X X & z ) ) L V K ",
"L ) I K p , o O , j P c i , 8 j B c I x 9 i j K ) [ } [ I K F K I / ) } L 0 i V [ 8.} } } B ; + 5 V ) | U e + X @ p ! 2.~ V z F ",
") } K B 5 O X @ q K L V q , 9 p j Z I p i j L ) } 8.} / I n F K L / / p , & e Z ) 2.} [ / 0 + + q / j.8.B , O % i (  . .L Z D F ",
"( K q 5 + o O > F ) K V B B B B Z L K y j z L / [ | } ! Z C Z Z L L F 9 % , p L ) ~ L L p + o @ z 2.k.L 5 O @ 8 K } a.} H L U ~ ",
"B ; + X O + , z / ) H V H U L Z F ! L z z x K K ~ ) ! Z C x Z K B K F z @ 9 z K ! F V B , o O , H 8./ 5 o o - p I [ ) ) ~ @.( ( ",
"o   X @ , p D U ( ( L K / ) U z U ) ) n B z x K L K z x x z n c K ^ ! z , p z p t 6 6 5 @ O , i L ) B - > > p K ~ I U / 0.) C 5 ",
"o o $ 0 Z ` ' ( ( ) ( L I I P F ( [ ) F V x c n n x z z z c c c F ! ^ z * 6 9 5 q : : : & 5 t V K L z p B P ( ) P H I ( K i > ; ",
", < q Z ( 0.O.H I @.3.I x Z K L ~ ~ / F z z z z x z z x c m K n n K n 9 @ & * 9 9 e e u p s p p j Z K I 2.z.4.( i B P ( D q 7 > ",
"h N N P X.@.I B D ( 0.C i B P x Z F K H z t t z z z x n n n m x z n z e + & 5 y z n F F F Z 9 q z K ( 2.9.x.` B 7 h P ( I D B A ",
"S q i C ` @.` p h I T i 5 q p j p z c c p 5 9 p x l c n x z z y z x k 9 & = 9 x ~ { { ^ F z 5 p x I O.} 2.4.U > ; g H ` $.&.%.I ",
"h 0 N T d.a.S 0 7 C C < : w B V i t x z p 9 9 t k n c x k t e r y x x y 5 1 t M _ g._ F s p p Z K ~ ( ) 2.&.g - 7 C ` &.a.z.z.$.",
"q d I M.V.T 0 $ < i p q p C / L p z C c j e e y x n c k y e 9 2 r x x r = = a ! { _ z t 9 t V m / I ( 2.2.( 7 - q P $.e.a.N.q.P ",
"d S n.C.r.i - ; 7 B D H U ) 8.) x C K L y t y k x x r e 9 3 1 = e a e & = e x ^ _ ^ z s t t Z L U L ( 4.] N ; ; g T $.a.B.a.D g ",
"g Y N.N.N > ; < B ` @.2.8.z.8.L Z c L L x j j y k e = 2 e e * & 9 e = 1 e a m E ^ ~ c p q e V I L U ) [ U q ; < g T a.M.0.,.J f ",
"h T b.P d 7 0 A ` d.z.x.8.2.) K Z K F c k z z t 9 1 * 9 y r 1 1 4 4 3 y k n l x s x t 5 5 t F ~ U K ( D B 5 @ ; g T n.M.,.$.h f ",
"N S J S h g N T 4.z.a.2.' ( L / I x 9 9 t y j 9 1 1 3 y k y 3 r r y k l v a 3 * : 6 6 : 5 p U ) L e 5 > > ; ; ; N ` n.M.q.=.S N ",
"d d N D A h S Y I ` 3.O./ I ( ( / z & & 5 p p y y r k l l a 4 a k k k k e = & * e p p 9 t V ~ U q o X + 7 q < w D e.n.n.;.T N d ",
"< d S Y P D S Z D ` $.' T T / ( K 5 @ & 9 j x n n n b M b a 4 a k y r r r 2 3 t z G m p p F K p , + O , h C A D q.B.N.;.b.J d > "
};
