/* XPM */
static char *_aa2d00a347140eea9069a05a16b25dewAKNT0Hyosmq3V95[] = {
/* columns rows colors chars-per-pixel */
"64 64 6 1 ",
"  c #6D442E",
". c #B97A57",
"X c #22B14C",
"o c #B5E61D",
"O c magenta",
"+ c #EFE4B0",
/* pixels */
"OOOOOOOOOOOOOOOOOOOOOOOOOOOOOOOOOOOOOOOOOOOOOOOOOOOOOOOOOOOOOOOO",
"OOOOOOOOOOOOOOOOOOOOOOOOOOOOOOOOOOOOOOOOOOOOOOOOOOOOOOOOOOOOOOOO",
"OOOOOOOOOOOOOOOOOOOOOOOOOOOOOOOOOOOOOOOOOOOOOOOOOOOOOOOOOOOOOOOO",
"OOOOOOOOOOOOOOOOOOOOOOOOOOOOOOOOOOOOOOOOOOOOOOOOOOOOOOOOOOOOOOOO",
"OOOOOOOOOOOOOOOOOOOOOOO    OOOOOOOOOOOOOOOOOOOOOOOOOOOOOOOOOOOOO",
"OOOOOOOOOOOOOOOOOOOOOO ....  OOOOOOOOOOOOOOOOOOOOOOOOOOOOOOOOOOO",
"OOOOOOOOOOOOOOOOOOOOO    ....  OOOOOOOOOOOOOOOOOOOOOOOOOOOOOOOOO",
"OOOOOOOOOOOOOOOOOOOO  ++   ....  OOOOOOOOOOOOOOOOOOOOOOOOOOOOOOO",
"OOOOOOOOOOOOOOOOOOO  +++++   ....  OOOOOOOOOOOOOOOOOOOOOOOOOOOOO",
"OOOOOOOOOOOOOOOOOOO ++++++++   ....  OOOOOOOOOOOOOOOOOOOOOOOOOOO",
"OOOOOOOOOOOOOOOOOO ++++++++++   ....  OOOOOOOOOOOOOOOOOOOOOOOOOO",
"OOOOOOOOOOOOOOOOOO ++++++++++++   ....  OOOOOOOOOOOOOOOOOOOOOOOO",
"OOOOOOOOOOOOOOOOOO ++++++++++++++   ....  OOOOOOOOOOOOOOOOOOOOOO",
"OOOOOOOOOOOOOOOOOO ++++++++++++++++   ....  OOOOOOOOOOOOOOOOOOOO",
"OOOOOOOOOOOOOOOOOO ++++++++++++++++++   ....  OOOOOOOOOOOOOOOOOO",
"OOOOOOOOOOOOOOOOOO ++++++++++++++++++++   .... OOOOOOOOOOOOOOOOO",
"OOOOOOOOOOOOOOOOOO ++++++++++++++++++++++   ... OOOOOOOOOOOOOOOO",
"OOOOOOOOOOOOOOOOOO ++++++++++++++++++++++++  ..  OOOOOOOOOOOOOOO",
"OOOOOOOOOOOOOOOOOO +++++++++++++++++++++++++   . OOOOOOOOOOOOOOO",
"OOOOOOOOOOOOOOOOOO ++++++++++++++++++++++++++ .. OOOOOOOOOOOOOOO",
"OOOOOOOOOOOOOOOOOO ++++++++++++++++++++++++++ .. OOOOOOOOOOOOOOO",
"OOOOOOOOOOOOOOOOO ++++++++++++++++++++++++++ .. OOOOOOOOOOOOOOOO",
"OOOOOOOOOOOOOOOOO ++++++++++++++++++++++++++ .. OOOOOOOOOOOOOOOO",
"OOOOOOOOOOOOOOOOO ++++++++++++++++++++++++++ .. OOOOOOOOOOOOOOOO",
"OOOOOOOOOOOOOOOOO ++++++++++++++++++++++++++ .. OOOOOOOOOOOOOOOO",
"OOOOOOOOOOOOOOOOO ++++++++++++++++++++++++++ .. OOOOOOOOOOOOOOOO",
"OOOOOOOOOOOOOOOOO ++++++++++++++++++++++++++ .. OOOOOOOOOOOOOOOO",
"OOOOOOOOOOOOOOOOO  +++++++++++++++++++++++++ .. OOOOOOOOOOOOOOOO",
"OOOOOOOOOOOOOOOOOO  ++++++++++++++++++++++++ .. OOOOOOOOOOOOOOOO",
"OOOOOOOOOOOOOOOOOOO   ++++++++++++++++++++++ .. OOOOOOOOOOOOOOOO",
"OOOOOOOOOOOOOOOOOOOOO   ++++++++++++++++++++ .. OOOOOOOOOOOOOOOO",
"OOOOOOOOOOOOOOOOOOOOOOO   ++++++++++++++++++ .. OOOOOOOOOOOOOOOO",
"OOOOOOOOOOOOOOOOOOOOOOOOO   ++++++++++++++++ .. OOOOOOOOOOOOOOOO",
"OOOOOOOOOOOOOOOOOOOOOOOOOO    +++++++++++++ .. OOOOOOOOOOOOOOOOO",
"OOOOOOOOOOOOOOOOOOOOOOOOOO ...  +++++++++++ .. OOOOOOOOOOOOOOOOO",
"OOOOOOOOOOOOOOOOOOOOOOOOOO ....   +++++++++ .. OOOOOOOOOOOOOOOOO",
"OOOOOOOOOOOOOOOOOOOOOOOOOO .... .  ++++++++ . OOOOOOOOOOOOOOOOOO",
"OOOOOOOOOOOOOOOOOOOOOOOOOO .... ..   +++++   OOOOOOOOOOOOOOOOOOO",
"OOOOOOOOOOOOOOOOOOOOOOOOOO .... .. O   ++  OOOOOOOOOOOOOOOOOOOOO",
"OOOOOOOOOOOOOOOOOOOOOOOOOO .... .. OOO    OOOOOOOOOOOOOOOOOOOOOO",
"OOOOOOOOOOOOOOOOOOOOOOOOOO .... .. OOOOOOOOOOOOOOOOOOOOOOOOOOOOO",
"OOOOOOOOOOOOOOOOOOOOOOOOOO .... .. OOOOOOOOOOOOOOOOOOOOOOOOOOOOO",
"OOOOOOOOOOOOOOOOOOOOOOOOOO .... .. OOOOOOOOOOOOOOOOOOOOOOOOOOOOO",
"OOOOOOOOOOOOOOOOOOOOOOOOOO .... .  OOOOOOOOOOOOOOOOOOOOOOOOOOOOO",
"OOOOOOOOOOOOOOOOOOOOOOOOO ....  . OOOOOOOOOOOOOOOOOOOOOOOOOOOOOO",
"OOOOOOOOOOOOOOOOOOOOOOOOO .... .. OOOOOOOOOOOOOOOOOOOOOOOOOOOOOO",
"OOOOOOOOOOOOOOOOOOOOOOOOO .... .. OOOOOOOOOOOOOOOOOOOOOOOOOOOOOO",
"OOOOOOOOOOOOOOOOOOOOOOOOO .... .. OOOOOOOOOOOOOOOOOOOOOOOOOOOOOO",
"OOOOOOOOOOOOOOOOOOOOOOOOO .... .. OOOOOOOOOOOOOOOOOOOOOOOOOOOOOO",
"OOOOOOOOOOOOOOOOOOOOOOOOO .... .. oooOOOOOOOOOOOOOOOOOOOOOOOOOOO",
"OOOOOOOOOOOOOOOOOOOOOOOOO .... .. XXXoOOOOOOOOOOOOOOOOOOOOOOOOOO",
"OOOOOOOOOOOOOOOOOOOOOOOOO .... .. XXXXoOOOOOOOOOOOOOOOOOOOOOOOOO",
"OOOOOOOOOOOOOOOOOOOOOOOOO .... .. XXXXXoOOOOOOOOOOOOOOOOOOOOOOOO",
"OOOOOOOOOOOOOOOOOOOOOOOOo .... .. XXXXXXoOOOOOOOOOOOOOOOOOOOOOOO",
"OOOOOOOOOOOOOOOOOOOOOOOoX .... .. XXXXXXXoooOOOOOOOOOOOOOOOOOOOO",
"OOOOOOOOOOOOOOOOOOOOOooXX .... . XXXXXXXXXXXoOOOOOOOOOOOOOOOOOOO",
"OOOOOOOOOOOOOOOOOOOOoXXXXX....  XXXXXXXXXXXXXoOOOOOOOOOOOOOOOOOO",
"OOOOOOOOOOOOOOOOOOOoXXXXXXXX.. XXXXXXXXXXXXXXoOOOOOOOOOOOOOOOOOO",
"OOOOOOOOOOOOOOOOOOoXXXXXXXXXXXXXXXXXXXXXXXXXoOOOOOOOOOOOOOOOOOOO",
"OOOOOOOOOOOOOOOOOOoXXXXXXXXXXXXXXXXXXXXXXXXoOOOOOOOOOOOOOOOOOOOO",
"OOOOOOOOOOOOOOOOOOoXXXXXXXXXXXXXXXXXXXXXXXoOOOOOOOOOOOOOOOOOOOOO",
"OOOOOOOOOOOOOOOOOoXXXXXXoXXoooXXXXXXXoXoooOOOOOOOOOOOOOOOOOOOOOO",
"OOOOOOOOOOOOOOOOOOooXXooOooOOOoXXXXXoOoOOOOOOOOOOOOOOOOOOOOOOOOO",
"OOOOOOOOOOOOOOOOOOOOooOOOOOOOOOoooooOOOOOOOOOOOOOOOOOOOOOOOOOOOO"
};
