/* XPM */
static char *_d5b1b58bcf64e42e0b613b3440b86b1NuKnOncMvyHG2I2X[] = {
/* columns rows colors chars-per-pixel */
"64 64 8 1 ",
"  c #414141",
". c #5D5D5D",
"X c gray50",
"o c #3F48CC",
"O c magenta",
"+ c #00A2E8",
"@ c #99D9EA",
"# c #C3C3C3",
/* pixels */
"OOOOOOOOOOOOOOOOOOOOOOOOOOOOOOOOOOOOOOOOOOOOOOOOOOOOOOOOOOOOOOOO",
"OOOOOOOOOOOOOOOOOOOOOOOOOOOOOOOOOOOOOOOOOOOOOOOOOOOOOOOOOOOOOOOO",
"OOOOOOOOOOOOOOOOOOOOOOOOOOOOOOOOOOOOOOOOOOOOOOOOOOOOOOOOOOOOOOOO",
"OOOOOOOOOOOOOOOOOOOOOOOOOOOOOOOOOOOOOOOOOOOOOOOOOOOOOOOOOOOOOOOO",
"OOOOOOOOOOOOOOOOOOOOOOOOOOOOOOOOOOOOOOOOOOOOOOOOOOOOOOOOOOOOOOOO",
"OOOOOOOOOOOOOOOOOOOOOOOOOOOOOOOOOOOOOOOOOOOOOOOOOOOOOOOOOOOOOOOO",
"OOOOOOOOOOOOOOOOOOOOOOOOOOOOOOOOOOOOOOOOOOOOOOOOOOOOOOOOOOOOOOOO",
"OOOOOOOOOOOOOOOOOOOOOOOOOOOOOOOOOOOOOOOOOOOOOOOOOOOOOOOOOOOOOOOO",
"OOOOOOOOOOOOOOOOOOOOOOOOOOOOOOOOOOOOOOOOOOOOOOOOOOOOOOOOOOOOOOOO",
"OOOOOOOOOOOOOOOOOOOOOOOOOOOOOOOOOOOOOOOOOOOOOOOOOOOOOOOOOOOOOOOO",
"OOOOOOOOOOOOOOOOOOOOOOOOOOOOOOOOOOOOOOOOOOOOOOOOOOOOOOOOOOOOOOOO",
"OOOOOOOOOOOOOOOOOOOOOOOOOOOOOOOOOOOOOOOOOOOOOOOOOOOOOOOOOOOOOOOO",
"OOOOOOOOOOOOOOOOOOOOOOOOOOOOOOOOOOOOOOOOOOOOOOOOOOOOOOOOOOOOOOOO",
"OOOOOOOOOOOOOOOOOOOOOOOOOOOOOOOOOOOOOOOOOOOOOOOOOOOOOOOOOOOOOOOO",
"OOOOOOOOOOOOOOOOOOOOOOOOOOOOOOOOOOOOOOOOOOOOOOOOOOOOOOOOOOOOOOOO",
"OOOOOOOOOOOOOOOOOOOOOOOOOOOOOOOOOOOOOOOOOOOOOOOOOOOOOOOOOOOOOOOO",
"OOOOOOOOOOOOOOOOOOOOOOOOOOOOOOOOOOOOOOOOOOOOOOOOOOOOOOOOOOOOOOOO",
"OOOOOOOOOOOOOOOOOOOOOOOOOOOOOOOOOOOOOOOOOOOOOOOOOOOOOOOOOOOOOOOO",
"OOOOOOOOOOOOOOOOOOOOOOOOOOOOOOOOOOOOOOOOOOOOOOOOOOOOOOOOOOOOOOOO",
"OOOOOOOOOOOOOOOOOOOOOOOOOOOOOOOOOOOOOOOOOOOOOOOOOOOOOOOOOOOOOOOO",
"OOOOOOOOOOOOOOOOOOOOOOOOOOOOOOOOOOOOOOOOOOOOOOOOOOOOOOOOOOOOOOOO",
"OOOOOOOOOOOOOOOOOOOOOOOOOOOOOOOOOOOOOOOOOOOOOOOOOOOOOOOOOOOOOOOO",
"OOOOOOOOOOOOOOOOOOOOOOOOOOOOOOOOOOOOOOOOOOOOOOOOOOOOOOOOOOOOOOOO",
"OOOOOOOOOOOOOOOOOOOOOOOOOOOOOOOOOOOOOOOOOOOOOOOOOOOOOOOOOOOOOOOO",
"OOOOOOOOOOOOOOOOOOOOOOOOOOOOOOOOOOOOOOOOOOOOOOOOOOOOOOOOOOOOOOOO",
"OOOOOOOOOOOOOOOOOOOOOOOOOOOOOOOOOOOOOOOOOOOOOOOOOOOOOOOOOOOOOOOO",
"OOOOOOOOOOOOOOOOOOOOOOOOOOOOOOOOOOOOOOOOOOOOOOOOOOOOOOOOOOOOOOOO",
"OOOOOOOOOOOOOOOOOOOOOOOOOOOOOOOOOOOOOOOOOOOOOOOOOOOOOOOOOOOOOOOO",
"OOOOOOOOOOOOOOOOOOOOOOOOOOOOOOOOOOOOOOOOOOOOOOOOOOOOOOOOOOOOOOOO",
"OOOOOOOOOOOOOOOOOOOOOOOOOOOOOOOOOOOOOOOOOOOOOOOOOOOOOOOOOOOOOOOO",
"OOOOOOOOOOOOOOOOOOOOOOOOO             OOOOOOOOOOOOOOOOOOOOOOOOOO",
"OOOOOOOOOOOOOOOOOOOO     ##XX#########     OOOOOOOOOOOOOOOOOOOOO",
"OOOOOOOOOOOOOOOOOOO #######XX########XX#### OOOOOOOOOOOOOOOOOOOO",
"OOOOOOOOOOOOOOOOO  X########XX#######XX#####  OOOOOOOOOOOOOOOOOO",
"OOOOOOOOOOOOOOOO #XXX####             XX###XX# OOOOOOOOOOOOOOOOO",
"OOOOOOOOOOOOOOO ####     XXXXXXXXXXXXX     X### OOOOOOOOOOOOOOOO",
"OOOOOOOOOOOOOO ###  XXXXXXXXXXXXXXXXXXXXXXX  ### OOOOOOOOOOOOOOO",
"OOOOOOOOOOOOO ### XXXXXXXoooooooooooooXXXXXXX ### OOOOOOOOOOOOOO",
"OOOOOOOOOOOOO ### XXXoooo+++++++++++++ooooXXX ### OOOOOOOOOOOOOO",
"OOOOOOOOOOOOO ### Xoo@@@@@@+++++++++++++++ooX ### OOOOOOOOOOOOOO",
"OOOOOOOOOOOOO ### o@@@@@@@@@@@@@@@@@@@++++++o X## OOOOOOOOOOOOOO",
"OOOOOOOOOOOOO..###  @@@@@@@@@@@@@@@@@@@@@++  XXX..OOOOOOOOOOOOOO",
"OOOOOOOOOOOOO.X..##X      @@@@@@@@@@@      ###..X.OOOOOOOOOOOOOO",
"OOOOOOOOOOOOO.#XX.#XX#####           XX######.XXX.OOOOOOOOOOOOOO",
"OOOOOOOOOOOOO.###X..X#######XX#######XX####..###X.OOOOOOOOOOOOOO",
"OOOOOOOOOOOOO.##XXXX.########XX#######XX##.#####X.OOOOOOOOOOOOOO",
"OOOOOOOOOOOOO.##XX##X.....###XX#######....######X.OOOOOOOOOOOOOO",
"OOOOOOOOOOOOO.XXX####XX#XX............XX#######XX.OOOOOOOOOOOOOO",
"OOOOOOOOOOOOO.#######XX###XXXXX#XXXXXXXX######XXX.OOOOOOOOOOOOOO",
"OOOOOOOOOOOOO.########XX#####X########XX#####XX#X.OOOOOOOOOOOOOO",
"OOOOOOOOOOOOO.XXX######XX##XX########XX#######X#X.OOOOOOOOOOOOOO",
"OOOOOOOOOOOOO.XXXX#####XX#X##########XX#######X#X.OOOOOOOOOOOOOO",
"OOOOOOOOOOOOO.###XX#####X#X##########XX######X##X.OOOOOOOOOOOOOO",
"OOOOOOOOOOOOO.###XX####XXXXXXX########XX###XXXX#X.OOOOOOOOOOOOOO",
"OOOOOOOOOOOOO.####XX#XX####XXXX#######XXXXXXX#XXX.OOOOOOOOOOOOOO",
"OOOOOOOOOOOOOO.####XX#########XX##XXX#XX########.OOOOOOOOOOOOOOO",
"OOOOOOOOOOOOOOO.####XX########XX#XXXXXX########XOOOOOOOOOOOOOOOO",
"OOOOOOOOOOOOOOOO.####XX########XX####XXX######.OOOOOOOOOOOOOOOOO",
"OOOOOOOOOOOOOOOOO..###XX#######XX#####XX####..OOOOOOOOOOOOOOOOOO",
"OOOOOOOOOOOOOOOOOOO.##XX######XX#######XX##.OOOOOOOOOOOOOOOOOOOO",
"OOOOOOOOOOOOOOOOOOOO......####XX######.....OOOOOOOOOOOOOOOOOOOOO",
"OOOOOOOOOOOOOOOOOOOOOOOOOO............OOOOOOOOOOOOOOOOOOOOOOOOOO",
"OOOOOOOOOOOOOOOOOOOOOOOOOOOOOOOOOOOOOOOOOOOOOOOOOOOOOOOOOOOOOOOO",
"OOOOOOOOOOOOOOOOOOOOOOOOOOOOOOOOOOOOOOOOOOOOOOOOOOOOOOOOOOOOOOOO"
};
